<?xml version="1.0" encoding="UTF-8"?>
<svg xmlns="http://www.w3.org/2000/svg" viewBox="0 0 1024 1024">
  <defs>
    <style>
      .cls-1 {
        fill: #082f49;
      }

      .cls-2 {
        fill: #ecfeff;
      }
    </style>
  </defs>
  <g id="Layer_1" data-name="Layer 1">
    <rect class="cls-2" width="1024" height="1024"/>
  </g>
  <g id="Layer_2" data-name="Layer 2">
    <g>
      <path class="cls-1" d="M613.05,496.69h-186.45v101.75h177.1v61.6h-177.1v112.2h189.2l-2.75,66h-272.8v-407h275.55l-2.75,65.45Z"/>
      <path class="cls-1" d="M862.75,797.54h-1.65c-15.95,24.2-46.2,47.3-89.1,47.3-69.3,0-114.95-41.25-114.95-152.9v-14.85c0-101.2,59.4-150.15,151.25-150.15,45.65,0,84.7,2.2,135.3,4.95v416.35h-83.05v-82.5c0-20.9,1.1-47.3,2.2-68.2ZM802.25,779.39c25.85,0,46.75-13.75,58.3-33v-160.6c-17.05-.55-33-1.1-47.85-1.1-46.75,0-72.6,27.5-72.6,93.5v11.55c0,64.9,22,89.65,62.15,89.65Z"/>
    </g>
  </g>
</svg>